<?xml version="1.0" encoding="UTF-8" standalone="no"?>
<!DOCTYPE svg PUBLIC "-//W3C//DTD SVG 1.1//EN"
 "http://www.w3.org/Graphics/SVG/1.1/DTD/svg11.dtd">
<!-- Generated by graphviz version 2.38.0 (20140413.2041)
 -->
<!-- Title: DFA Pages: 1 -->
<svg width="620pt" height="461pt"
 viewBox="0.00 0.00 619.50 460.81" xmlns="http://www.w3.org/2000/svg" xmlns:xlink="http://www.w3.org/1999/xlink">
<g id="graph0" class="graph" transform="scale(1 1) rotate(0) translate(4 456.813)">
<title>DFA</title>
<polygon fill="white" stroke="none" points="-4,4 -4,-456.813 615.501,-456.813 615.501,4 -4,4"/>
<!-- Grammar -->
<g id="node1" class="node"><title>Grammar</title>
<polygon fill="none" stroke="black" points="172.462,-417.517 77.4619,-417.517 77.4619,-349.517 172.462,-349.517 172.462,-417.517"/>
<text text-anchor="middle" x="124.962" y="-402.317" font-family="Times New Roman,serif" font-size="14.00">Grammar</text>
<text text-anchor="middle" x="124.962" y="-387.317" font-family="Times New Roman,serif" font-size="14.00">S → A | B</text>
<text text-anchor="middle" x="124.962" y="-372.317" font-family="Times New Roman,serif" font-size="14.00">A → a b c</text>
<text text-anchor="middle" x="124.962" y="-357.317" font-family="Times New Roman,serif" font-size="14.00">B → identifier</text>
</g>
<!-- 0 -->
<g id="node2" class="node"><title>0</title>
<ellipse fill="none" stroke="black" cx="263.962" cy="-383.517" rx="73.5782" ry="69.0935"/>
<text text-anchor="middle" x="263.962" y="-417.317" font-family="Times New Roman,serif" font-size="14.00">0</text>
<text text-anchor="middle" x="263.962" y="-402.317" font-family="Times New Roman,serif" font-size="14.00">Ͽ → • S</text>
<text text-anchor="middle" x="263.962" y="-387.317" font-family="Times New Roman,serif" font-size="14.00">S → • A</text>
<text text-anchor="middle" x="263.962" y="-372.317" font-family="Times New Roman,serif" font-size="14.00">S → • B</text>
<text text-anchor="middle" x="263.962" y="-357.317" font-family="Times New Roman,serif" font-size="14.00">A → • a b c</text>
<text text-anchor="middle" x="263.962" y="-342.317" font-family="Times New Roman,serif" font-size="14.00">B → • identifier</text>
</g>
<!-- 1 -->
<g id="node3" class="node"><title>1</title>
<ellipse fill="none" stroke="black" cx="45.9619" cy="-236.35" rx="45.9239" ry="26.7407"/>
<text text-anchor="middle" x="45.9619" y="-240.15" font-family="Times New Roman,serif" font-size="14.00">1</text>
<text text-anchor="middle" x="45.9619" y="-225.15" font-family="Times New Roman,serif" font-size="14.00">Ͽ → S •</text>
</g>
<!-- 0&#45;&gt;1 -->
<g id="edge1" class="edge"><title>0&#45;&gt;1</title>
<path fill="none" stroke="black" d="M210.078,-335.963C200.588,-328.41 190.644,-320.888 180.962,-314.22 151.326,-293.811 115.913,-273.796 88.7935,-259.308"/>
<polygon fill="black" stroke="black" points="90.4098,-256.204 79.9349,-254.614 87.1322,-262.389 90.4098,-256.204"/>
<text text-anchor="middle" x="157.462" y="-285.02" font-family="Times New Roman,serif" font-size="14.00">S</text>
</g>
<!-- 2 -->
<g id="node4" class="node"><title>2</title>
<ellipse fill="none" stroke="black" cx="154.962" cy="-236.35" rx="45.011" ry="26.7407"/>
<text text-anchor="middle" x="154.962" y="-240.15" font-family="Times New Roman,serif" font-size="14.00">2</text>
<text text-anchor="middle" x="154.962" y="-225.15" font-family="Times New Roman,serif" font-size="14.00">S → A •</text>
</g>
<!-- 0&#45;&gt;2 -->
<g id="edge2" class="edge"><title>0&#45;&gt;2</title>
<path fill="none" stroke="black" d="M221.82,-326.392C207.331,-307.096 191.613,-286.163 179.06,-269.444"/>
<polygon fill="black" stroke="black" points="181.61,-267.011 172.807,-261.116 176.012,-271.214 181.61,-267.011"/>
<text text-anchor="middle" x="201.962" y="-285.02" font-family="Times New Roman,serif" font-size="14.00">A</text>
</g>
<!-- 3 -->
<g id="node5" class="node"><title>3</title>
<ellipse fill="none" stroke="black" cx="263.962" cy="-236.35" rx="45.011" ry="26.7407"/>
<text text-anchor="middle" x="263.962" y="-240.15" font-family="Times New Roman,serif" font-size="14.00">3</text>
<text text-anchor="middle" x="263.962" y="-225.15" font-family="Times New Roman,serif" font-size="14.00">S → B •</text>
</g>
<!-- 0&#45;&gt;3 -->
<g id="edge3" class="edge"><title>0&#45;&gt;3</title>
<path fill="none" stroke="black" d="M263.962,-314.184C263.962,-300.192 263.962,-285.989 263.962,-273.664"/>
<polygon fill="black" stroke="black" points="267.462,-273.369 263.962,-263.369 260.462,-273.369 267.462,-273.369"/>
<text text-anchor="middle" x="268.962" y="-285.02" font-family="Times New Roman,serif" font-size="14.00">B</text>
</g>
<!-- 4 -->
<g id="node6" class="node"><title>4</title>
<ellipse fill="none" stroke="black" cx="386.962" cy="-236.35" rx="59.2941" ry="26.7407"/>
<text text-anchor="middle" x="386.962" y="-240.15" font-family="Times New Roman,serif" font-size="14.00">4</text>
<text text-anchor="middle" x="386.962" y="-225.15" font-family="Times New Roman,serif" font-size="14.00">A → a • b c</text>
</g>
<!-- 0&#45;&gt;4 -->
<g id="edge4" class="edge"><title>0&#45;&gt;4</title>
<path fill="none" stroke="black" d="M309.413,-328.875C326.386,-308.843 345.112,-286.742 359.91,-269.277"/>
<polygon fill="black" stroke="black" points="362.618,-271.495 366.412,-261.603 357.277,-266.97 362.618,-271.495"/>
<text text-anchor="middle" x="351.462" y="-285.02" font-family="Times New Roman,serif" font-size="14.00">a</text>
</g>
<!-- 5 -->
<g id="node7" class="node"><title>5</title>
<ellipse fill="none" stroke="black" cx="537.962" cy="-236.35" rx="73.5782" ry="26.7407"/>
<text text-anchor="middle" x="537.962" y="-240.15" font-family="Times New Roman,serif" font-size="14.00">5</text>
<text text-anchor="middle" x="537.962" y="-225.15" font-family="Times New Roman,serif" font-size="14.00">B → identifier •</text>
</g>
<!-- 0&#45;&gt;5 -->
<g id="edge5" class="edge"><title>0&#45;&gt;5</title>
<path fill="none" stroke="black" d="M327.857,-348.665C376.826,-322.721 443.417,-287.44 488.402,-263.608"/>
<polygon fill="black" stroke="black" points="490.181,-266.626 497.379,-258.852 486.904,-260.44 490.181,-266.626"/>
<text text-anchor="middle" x="473.462" y="-285.02" font-family="Times New Roman,serif" font-size="14.00">identifier</text>
</g>
<!-- 6 -->
<g id="node8" class="node"><title>6</title>
<ellipse fill="none" stroke="black" cx="386.962" cy="-131.61" rx="59.2941" ry="26.7407"/>
<text text-anchor="middle" x="386.962" y="-135.41" font-family="Times New Roman,serif" font-size="14.00">6</text>
<text text-anchor="middle" x="386.962" y="-120.41" font-family="Times New Roman,serif" font-size="14.00">A → a b • c</text>
</g>
<!-- 4&#45;&gt;6 -->
<g id="edge6" class="edge"><title>4&#45;&gt;6</title>
<path fill="none" stroke="black" d="M386.962,-209.425C386.962,-197.135 386.962,-182.247 386.962,-168.862"/>
<polygon fill="black" stroke="black" points="390.462,-168.528 386.962,-158.528 383.462,-168.528 390.462,-168.528"/>
<text text-anchor="middle" x="390.962" y="-180.28" font-family="Times New Roman,serif" font-size="14.00">b</text>
</g>
<!-- 7 -->
<g id="node9" class="node"><title>7</title>
<ellipse fill="none" stroke="black" cx="386.962" cy="-26.8701" rx="59.2941" ry="26.7407"/>
<text text-anchor="middle" x="386.962" y="-30.6701" font-family="Times New Roman,serif" font-size="14.00">7</text>
<text text-anchor="middle" x="386.962" y="-15.6701" font-family="Times New Roman,serif" font-size="14.00">A → a b c •</text>
</g>
<!-- 6&#45;&gt;7 -->
<g id="edge7" class="edge"><title>6&#45;&gt;7</title>
<path fill="none" stroke="black" d="M386.962,-104.685C386.962,-92.3951 386.962,-77.5066 386.962,-64.1214"/>
<polygon fill="black" stroke="black" points="390.462,-63.7874 386.962,-53.7874 383.462,-63.7875 390.462,-63.7874"/>
<text text-anchor="middle" x="390.462" y="-75.5401" font-family="Times New Roman,serif" font-size="14.00">c</text>
</g>
</g>
</svg>
